<?xml version="1.0" standalone="no"?>
<!DOCTYPE svg PUBLIC "-//W3C//DTD SVG 20010904//EN"
 "http://www.w3.org/TR/2001/REC-SVG-20010904/DTD/svg10.dtd">
<svg version="1.0" xmlns="http://www.w3.org/2000/svg"
 width="401.000000pt" height="401.000000pt" viewBox="0 0 401.000000 401.000000"
 preserveAspectRatio="xMidYMid meet">
<metadata>
Created by potrace 1.11, written by Peter Selinger 2001-2013
</metadata>
<g transform="translate(0.000000,401.000000) scale(0.100000,-0.100000)"
fill="#000000" stroke="none">
<path d="M1890 4007 c-3 -3 -25 -8 -50 -10 -74 -9 -192 -55 -286 -113 -72 -44
-113 -74 -126 -92 -7 -10 -18 -21 -25 -23 -19 -6 -120 -127 -170 -204 -37 -55
-103 -182 -108 -205 0 -3 -6 -21 -13 -41 -7 -20 -15 -45 -17 -55 -2 -10 -11
-44 -19 -74 -14 -49 -21 -91 -31 -185 -12 -115 -1 -294 26 -397 6 -24 11 -51
12 -60 1 -10 5 -18 10 -18 4 0 5 -4 2 -10 -3 -5 1 -23 10 -40 8 -16 13 -30 11
-30 -10 0 67 -157 111 -224 78 -121 101 -163 117 -217 33 -109 13 -217 -50
-282 -20 -20 -40 -37 -45 -37 -18 0 -24 -2 -34 -10 -6 -5 -40 -8 -75 -6 -89 3
-139 35 -181 116 -19 37 -22 58 -23 198 l-1 157 -163 0 -164 1 5 -186 c5 -214
6 -220 54 -320 48 -100 142 -194 244 -244 41 -20 85 -38 99 -40 14 -3 27 -5
30 -6 8 -3 33 -6 63 -8 41 -3 35 -34 -18 -89 -25 -25 -45 -43 -45 -40 0 4 -12
-1 -27 -10 -26 -17 -68 -20 -313 -23 l-36 0 1 -162 0 -163 140 0 c130 -1 204
5 265 20 14 3 30 7 36 8 23 5 114 52 114 59 0 5 4 8 10 8 12 0 40 23 88 72 52
53 61 64 74 93 17 38 23 17 22 -77 -2 -115 -17 -161 -68 -212 -55 -56 -99 -66
-275 -66 l-141 0 0 -166 0 -167 178 6 c97 3 187 8 200 11 12 3 30 8 40 10 9 2
31 10 47 17 17 7 32 13 35 13 39 7 175 126 220 194 l32 47 -5 -125 c-4 -115
-18 -180 -38 -180 -4 0 -10 -8 -13 -17 -7 -22 -65 -60 -103 -69 -68 -15 -63 0
-63 -176 l0 -161 63 6 c88 8 103 12 185 53 134 66 258 222 278 349 3 25 10 43
14 40 7 -4 22 -65 20 -80 0 -3 7 -19 15 -35 8 -16 16 -33 16 -37 3 -20 68
-103 117 -150 55 -53 164 -117 217 -128 17 -3 58 -9 93 -12 l62 -6 0 161 c0
158 0 161 -22 167 -92 24 -110 35 -156 89 -26 32 -34 74 -39 191 -4 114 -3
119 12 92 26 -45 60 -82 149 -162 18 -16 108 -62 147 -74 65 -21 82 -23 262
-28 l177 -6 0 167 0 166 -152 1 c-84 1 -155 1 -158 1 -3 0 -28 11 -55 26 -58
32 -105 94 -111 148 -5 44 -11 204 -7 204 1 0 17 -21 34 -47 30 -43 60 -74
129 -133 34 -30 134 -75 200 -90 33 -8 121 -14 220 -14 l165 -1 0 163 c1 105
-3 162 -10 162 -5 0 -77 2 -160 3 -132 2 -155 5 -191 24 -44 24 -88 70 -99
104 -9 26 -8 26 45 33 154 18 305 116 387 249 21 33 38 63 39 66 0 3 6 20 13
36 20 48 23 69 28 265 l5 186 -166 0 -165 0 0 -151 c0 -82 -2 -157 -4 -165 -6
-26 -39 -84 -57 -102 -31 -29 -101 -59 -138 -59 -33 0 -73 6 -79 11 -3 3 -19
7 -31 9 -22 3 -83 78 -96 119 -41 118 -10 230 109 403 38 56 103 185 110 218
2 11 9 29 15 41 6 12 13 29 16 38 2 9 10 44 19 77 8 33 18 78 21 100 9 50 9
358 1 405 -15 88 -48 212 -67 255 -5 11 -22 49 -38 85 -55 124 -176 286 -276
368 -23 18 -49 40 -59 48 -9 8 -22 14 -27 14 -6 0 -10 4 -10 8 0 19 -229 118
-300 129 -42 7 -275 15 -280 10z"/>
</g>
</svg>
